<?xml version="1.0" encoding="UTF-8" standalone="no"?>
<svg
xmlns:dc="http://purl.org/dc/elements/1.1/"
xmlns:cc="http://creativecommons.org/ns#"
xmlns:rdf="http://www.w3.org/1999/02/22-rdf-syntax-ns#"
xmlns:svg="http://www.w3.org/2000/svg"
xmlns="http://www.w3.org/2000/svg"
xmlns:sodipodi="http://sodipodi.sourceforge.net/DTD/sodipodi-0.dtd"
xmlns:inkscape="http://www.inkscape.org/namespaces/inkscape"
version="1.0"
width="470.73502"
height="91.635696"
id="svg2"
inkscape:version="0.48.0 r9654"
sodipodi:docname="Pebra.svg">
<metadata
id="metadata12">
<rdf:RDF>
<cc:Work
rdf:about="">
<dc:format>image/svg+xml</dc:format>
<dc:type
rdf:resource="http://purl.org/dc/dcmitype/StillImage" />
<dc:title></dc:title>
</cc:Work>
</rdf:RDF>
</metadata>
<sodipodi:namedview
pagecolor="#ffffff"
bordercolor="#666666"
borderopacity="1"
objecttolerance="10"
gridtolerance="10"
guidetolerance="10"
inkscape:pageopacity="0"
inkscape:pageshadow="2"
inkscape:window-width="1478"
inkscape:window-height="830"
id="namedview10"
showgrid="false"
fit-margin-top="0"
fit-margin-left="0"
fit-margin-right="0"
fit-margin-bottom="0"
inkscape:zoom="2.7118644"
inkscape:cx="230.25599"
inkscape:cy="46.648724"
inkscape:window-x="0"
inkscape:window-y="0"
inkscape:window-maximized="0"
inkscape:current-layer="svg2" />
<defs
id="defs4" />
<g
transform="matrix(2.7898919,0,0,2.7898919,-757.305,-1707.7765)"
id="layer1">
<g
transform="matrix(0.968497,0,0,0.968497,271.446,612.13)"
id="g2400">
<rect
width="34.014999"
height="21.552"
x="0.0049999999"
y="12.362"
id="rect2384"
style="fill:#00b259" />
<rect
width="34.015999"
height="8.2410002"
x="0.0040000002"
y="0"
id="rect2386"
style="fill:#ffdd00" />
<path
d="m 87.504,14.09 0.47,-1.646 -11.54,0 -0.92,3.296 3.7,0 -2.64,9.255 4.11,0 2.64,-9.255 3.7,0 0.48,-1.65 m 7.63,3.771 c 1.06,-0.069 1.71,-0.407 1.94,-1.197 0.25,-0.88 -0.34,-1.309 -1.29,-1.309 l -1.92,0 -0.72,2.506 1.63,0 c 0.13,0 0.25,0 0.36,0 z m 0,5.169 c 0.02,-0.067 0.04,-0.136 0.06,-0.225 0.3,-0.994 0.37,-1.582 -0.06,-1.896 -0.271,-0.204 -0.75,-0.294 -1.521,-0.294 l -1.24,0 -1.22,4.379 -4.13,0 0.48,-1.647 3.09,-10.903 5.92,0 c 4.19,0 5.23,1.129 4.55,3.566 -0.43,1.444 -1.39,2.663 -2.97,3.07 1.17,0.497 1.89,0.812 1.17,3.341 -0.48,1.647 -0.68,2.189 -0.18,2.189 l -0.12,0.384 -4.17,0 c -0.019,-0.249 0.091,-0.97 0.341,-1.964 z m 14.47,-10.722 c 0.61,-0.136 1.24,-0.203 1.87,-0.203 4.49,0 5.69,3.228 4.74,6.547 -1.01,3.544 -3.63,5.802 -6.61,6.478 -0.61,0.136 -1.24,0.204 -1.9,0.204 -3.93,0 -5.87,-2.438 -4.67,-6.728 0.95,-3.295 3.48,-5.621 6.57,-6.298 z m 0,9.774 c 1.22,-0.474 2.03,-1.784 2.48,-3.431 0.5,-1.716 0.32,-3.521 -1.51,-3.478 -0.36,0 -0.68,0.068 -0.97,0.182 -1.29,0.519 -2.08,2.01 -2.44,3.296 -0.48,1.603 -0.54,3.611 1.42,3.611 0.36,0.001 0.7,-0.067 1.02,-0.18 z m 14.72,-2.324 c 1.28,0 2.23,0.067 1.92,1.151 -0.25,0.902 -1,1.128 -1.92,1.151 -0.07,0 -0.14,0 -0.21,0 l -1.78,0 0.65,-2.303 1.31,0 c 0,10e-4 0,10e-4 0.03,10e-4 z m 0,-4.403 1.351,0 c 0.88,0 1.67,0.022 1.399,1.015 -0.2,0.724 -0.899,1.084 -1.74,1.084 l -1.69,0 0.59,-2.099 0.09,0 z m 0,9.617 c 2.84,-0.157 4.94,-1.175 5.66,-3.748 0.39,-1.375 0,-2.551 -1.26,-2.89 0.95,-0.496 2.05,-1.444 2.41,-2.73 0.7,-2.507 -1.35,-3.16 -4.17,-3.16 l -6.03,0 -3.57,12.551 6.14,0 c 0.28,-0.001 0.55,-0.001 0.82,-0.023 z m 15.6,-7.111 c 1.06,-0.069 1.71,-0.407 1.939,-1.197 0.24,-0.88 -0.34,-1.309 -1.29,-1.309 l -1.92,0 -0.72,2.506 1.62,0 c 0.141,0 0.251,0 0.371,0 z m 5.84,-1.603 c 0.05,-0.09 0.07,-0.159 0.09,-0.248 0.27,-0.948 0.27,-1.716 -0.09,-2.28 -0.54,-0.881 -1.92,-1.286 -4.47,-1.286 l -5.94,0 -3.56,12.551 4.11,0 1.26,-4.379 1.24,0 c 0.771,0 1.24,0.09 1.521,0.294 0.43,0.314 0.36,0.902 0.06,1.896 -0.02,0.089 -0.04,0.157 -0.06,0.225 -0.28,0.994 -0.37,1.715 -0.34,1.964 l 4.17,0 0.09,-0.384 c -0.47,0 -0.271,-0.542 0.21,-2.189 0.72,-2.529 0,-2.844 -1.18,-3.341 1.489,-0.386 2.459,-1.491 2.889,-2.823 z m 28.4,-0.18 c 0.32,-2.19 -0.77,-3.974 -4.24,-3.974 -3.16,0 -5.851,1.331 -6.59,4.018 -1.38,4.787 6.23,3.477 5.68,5.396 -0.16,0.587 -0.94,0.925 -1.96,0.925 -0.41,0 -0.81,-0.112 -1.08,-0.316 -0.3,-0.226 -0.45,-0.542 -0.41,-0.993 l -3.95,0 c -0.54,2.258 1.061,4.199 4.38,4.199 3.45,0 6.3,-1.422 7.11,-4.334 1.31,-4.562 -6.25,-3.409 -5.71,-5.283 0.11,-0.451 0.59,-0.722 1.51,-0.722 0.38,0 0.75,0.067 0.99,0.226 0.25,0.158 0.41,0.428 0.34,0.858 l 3.93,0 0,0 z m -20.83,-3.229 0.27,-0.405 4.19,0 0.93,12.551 -4.11,0 0,-1.647 -4.11,0 -0.94,1.647 -4.05,0 0.25,-0.384 7.57,-11.762 z m 0,7.879 1.3,0 -0.04,-4.515 -1.26,2.213 -1.29,2.302 1.29,0 z m -99.285,-5.373 -1.13,0 -0.77,2.793 1.897,0.007 0,-0.002 c 0.857,-0.044 1.581,-0.451 1.874,-1.466 0.315,-1.175 -0.948,-1.332 -1.828,-1.332 l -0.043,0 z m 0,5.711 0,0 c -0.226,0.023 -0.452,0.023 -0.678,0.023 l -2.078,0 -1.106,3.904 -4.13,0 3.589,-12.551 6.049,0 c 3.612,0 4.875,1.646 4.153,4.221 -0.723,2.552 -2.596,4.2 -5.799,4.403 z m 16.476,3.928 -10.498,0 3.568,-12.551 10.249,0 -0.835,2.912 -6.119,0 -0.519,1.806 5.193,0 -0.836,2.936 -5.192,0 -0.565,1.964 6.39,0 -0.836,2.933 z"
id="path2388"
style="fill:#0063a5;fill-rule:evenodd"
inkscape:connector-curvature="0" />
<path
d="m 9.448,14.874 2.835,0 c 0.564,0 1.074,0.362 1.074,0.958 0,0.804 -0.64,1.365 -1.529,1.365 l -3.035,0 0.655,-2.323 m -1.341,4.737 2.452,0 c 1.201,0 1.269,0.326 1.433,0.604 0.165,0.278 0.09,0.863 -0.024,1.066 -0.144,0.254 -0.386,1.04 -1.921,1.04 l -2.725,0 c 0,10e-4 0.783,-2.706 0.785,-2.71 z m 15.292,-4.721 2.679,0 c 1.271,0 1.32,0.862 1.32,1.108 0,0.574 -0.504,1.702 -2.046,1.702 l -2.73,0 c 0,0 0.763,-2.741 0.777,-2.81 z m 10.622,-2.53 0,-4.124 -34.021,0 0,4.124 6.546,0 -3.627,12.548 7.425,0 c 3.217,0 3.777,-0.751 4.429,-1.3 0.872,-0.732 1.34,-2.471 0.948,-3.682 -0.277,-0.856 -1.086,-1.375 -1.175,-1.399 1.005,-0.468 1.59,-1.489 1.662,-1.64 0.372,-0.775 0.662,-2.18 -0.266,-3.311 -0.77,-0.938 -2.268,-1.198 -3.354,-1.217 l 7.949,0 -3.641,12.573 3.684,0 1.347,-4.769 2.104,0 c 1.53,0 1.391,0.953 1.428,1.363 l 0.121,3.505 3.42,0.001 c 0,0 -0.154,-3.934 -0.168,-4.222 -0.045,-1.011 -0.715,-1.466 -1.285,-1.466 1.096,-0.296 2.047,-1.291 2.428,-1.93 0.437,-0.734 0.768,-1.904 0.334,-3.067 C 29.68,12.66 28.057,12.38 26.923,12.36 l 7.098,0 0,0 z"
id="path2390"
style="fill:#ffffff;fill-rule:evenodd"
inkscape:connector-curvature="0" />
</g>
</g>
</svg>
